<svg xmlns="http://www.w3.org/2000/svg" width="240" height="300" viewBox="0 0 240 300" role="img" aria-label="Hermione portrait card">
  <defs>
    <linearGradient id="bg" x1="0" y1="0" x2="1" y2="1">
      <stop offset="0" stop-color="#21183c"/>
      <stop offset="1" stop-color="#6b4fb1"/>
    </linearGradient>
  </defs>
  <rect width="240" height="300" rx="18" fill="url(#bg)"/>
  <rect x="10" y="10" width="220" height="280" rx="14" fill="none" stroke="#d4af37" stroke-opacity="0.6"/>
  <circle cx="120" cy="136" r="35" fill="#f0cdae"/>
  <path d="M84 138c7-38 20-60 36-60s29 22 36 60c-9-6-15-11-20-19-6 7-11 12-16 16-6-4-12-9-16-16-5 8-11 13-20 19z" fill="#6a4b2f"/>
  <path d="M70 252c8-39 25-62 50-62s42 23 50 62" fill="#2c2648"/>
  <rect x="40" y="172" width="30" height="40" rx="4" fill="#d4af37" fill-opacity="0.9"/>
  <line x1="46" y1="182" x2="64" y2="182" stroke="#432f08" stroke-width="1.5"/>
  <line x1="46" y1="188" x2="64" y2="188" stroke="#432f08" stroke-width="1.5"/>
  <line x1="46" y1="194" x2="64" y2="194" stroke="#432f08" stroke-width="1.5"/>
  <text x="18" y="276" font-family="Segoe UI, Arial" font-size="18" fill="#f6ebc8">HERMIONE</text>
</svg>
