<svg xmlns="http://www.w3.org/2000/svg" width="240" height="300" viewBox="0 0 240 300" role="img" aria-label="Vecna portrait card">
  <defs>
    <linearGradient id="bg" x1="0" y1="0" x2="1" y2="1">
      <stop offset="0" stop-color="#0b0404"/>
      <stop offset="1" stop-color="#2f0000"/>
    </linearGradient>
  </defs>
  <rect width="240" height="300" rx="18" fill="url(#bg)"/>
  <rect x="10" y="10" width="220" height="280" rx="14" fill="none" stroke="#c50812" stroke-opacity="0.5"/>
  <path d="M70 250c8-46 29-71 50-71s42 25 50 71" fill="#2b1414"/>
  <ellipse cx="120" cy="132" rx="32" ry="39" fill="#9a6464"/>
  <path d="M88 134c6-29 18-47 32-47s26 18 32 47c-8-3-11-7-15-13-6 7-11 12-17 15-6-3-11-8-17-15-4 6-7 10-15 13z" fill="#5e2d2d"/>
  <path d="M38 186c18-10 35-10 50 0" stroke="#d11" stroke-width="3" fill="none"/>
  <path d="M152 186c18-10 35-10 50 0" stroke="#d11" stroke-width="3" fill="none"/>
  <circle cx="52" cy="186" r="4" fill="#ff2730"/>
  <circle cx="188" cy="186" r="4" fill="#ff2730"/>
  <text x="18" y="276" font-family="Segoe UI, Arial" font-size="18" fill="#ffc5c9">VECNA</text>
</svg>
